<?xml version="1.0" encoding="UTF-8" standalone="no"?>
<svg
   xmlns:dc="http://purl.org/dc/elements/1.1/"
   xmlns:cc="http://creativecommons.org/ns#"
   xmlns:rdf="http://www.w3.org/1999/02/22-rdf-syntax-ns#"
   xmlns:svg="http://www.w3.org/2000/svg"
   xmlns="http://www.w3.org/2000/svg"
   xmlns:sodipodi="http://sodipodi.sourceforge.net/DTD/sodipodi-0.dtd"
   xmlns:inkscape="http://www.inkscape.org/namespaces/inkscape"
   viewBox="0 0 16 16"
   version="1.1"
   id="svg11"
   sodipodi:docname="KagiChart_16x.svg"
   inkscape:version="0.92.4 (5da689c313, 2019-01-14)">
  <metadata
     id="metadata17">
    <rdf:RDF>
      <cc:Work
         rdf:about="">
        <dc:format>image/svg+xml</dc:format>
        <dc:type
           rdf:resource="http://purl.org/dc/dcmitype/StillImage" />
      </cc:Work>
    </rdf:RDF>
  </metadata>
  <defs
     id="defs15" />
  <sodipodi:namedview
     pagecolor="#ffffff"
     bordercolor="#666666"
     borderopacity="1"
     objecttolerance="10"
     gridtolerance="10"
     guidetolerance="10"
     inkscape:pageopacity="0"
     inkscape:pageshadow="2"
     inkscape:window-width="3840"
     inkscape:window-height="2066"
     id="namedview13"
     showgrid="false"
     inkscape:zoom="83.4386"
     inkscape:cx="1.8132837"
     inkscape:cy="5.7982007"
     inkscape:window-x="-11"
     inkscape:window-y="-11"
     inkscape:window-maximized="1"
     inkscape:current-layer="svg11" />
  <style
     id="style2">.st0{opacity:0}.st0,.st1{fill:#f6f6f6}.st2{fill:#424242}.st3{fill:#f0eff1}</style>
  <g
     id="outline">
    <path
       class="st0"
       d="M0 0h16v16H0z"
       id="path4" />
    <path
       class="st1"
       d="M0 0h16v15H0z"
       id="path6" />
  </g>
  <path
     class="st2"
     d="M 1,1 V 14 H 15 V 1 Z M 14,7 H 13 V 3 H 9 v 5 h 1 V 4 h 2 v 4 h 2 v 5 H 2 V 12 H 4 V 9 h 2 v 2 h 4 V 8 H 9 v 2 H 7 V 8 H 3 v 3 H 2 V 2 h 12 z"
     id="icon_x5F_bg"
     inkscape:connector-curvature="0"
     style="fill:#424242"
     sodipodi:nodetypes="cccccccccccccccccccccccccccccccccc" />
  <path
     class="st3"
     d="M 14,7 V 2 H 2 v 9 H 3 V 8 h 4 v 2 H 9 V 8 h 1 v 3 H 6 V 9 H 4 v 3 H 2 v 1 H 14 V 8 H 12 V 4 H 10 V 8 H 9 V 3 h 4 v 4 z"
     id="icon_x5F_fg"
     inkscape:connector-curvature="0"
     style="fill:#f0eff1"
     sodipodi:nodetypes="ccccccccccccccccccccccccccccc" />
</svg>
