<?xml version="1.0" encoding="UTF-8" standalone="no"?>
<svg
   xmlns:dc="http://purl.org/dc/elements/1.1/"
   xmlns:cc="http://creativecommons.org/ns#"
   xmlns:rdf="http://www.w3.org/1999/02/22-rdf-syntax-ns#"
   xmlns:svg="http://www.w3.org/2000/svg"
   xmlns="http://www.w3.org/2000/svg"
   xmlns:sodipodi="http://sodipodi.sourceforge.net/DTD/sodipodi-0.dtd"
   xmlns:inkscape="http://www.inkscape.org/namespaces/inkscape"
   viewBox="0 0 16 16"
   version="1.1"
   id="svg11"
   sodipodi:docname="WindRose_16x.svg"
   inkscape:version="0.92.4 (5da689c313, 2019-01-14)"
   width="16"
   height="16">
  <metadata
     id="metadata17">
    <rdf:RDF>
      <cc:Work
         rdf:about="">
        <dc:format>image/svg+xml</dc:format>
        <dc:type
           rdf:resource="http://purl.org/dc/dcmitype/StillImage" />
        <dc:title />
      </cc:Work>
    </rdf:RDF>
  </metadata>
  <defs
     id="defs15" />
  <sodipodi:namedview
     pagecolor="#ffffff"
     bordercolor="#666666"
     borderopacity="1"
     objecttolerance="10"
     gridtolerance="10"
     guidetolerance="10"
     inkscape:pageopacity="0"
     inkscape:pageshadow="2"
     inkscape:window-width="3840"
     inkscape:window-height="2066"
     id="namedview13"
     showgrid="true"
     inkscape:zoom="64"
     inkscape:cx="10.561464"
     inkscape:cy="8.6543056"
     inkscape:window-x="-11"
     inkscape:window-y="-11"
     inkscape:window-maximized="1"
     inkscape:current-layer="svg11">
    <inkscape:grid
       type="xygrid"
       id="grid830" />
  </sodipodi:namedview>
  <style
     id="style2">.st0{opacity:0;fill:#f6f6f6}.st1{fill:#424242}.st2{fill:#f0eff1}</style>
  <path
     style="fill:#f0eff1;fill-opacity:1;stroke:#f0eff1;stroke-width:1.49800003;stroke-linecap:butt;stroke-linejoin:miter;stroke-miterlimit:4;stroke-dasharray:none;stroke-opacity:1;paint-order:normal"
     d="M 11.334189,1.0074752 10.384047,2.8726426 A 6.2782271,6.2782286 80.999997 0 0 6.5522594,2.2639269 l 0.163885,1.0340365 A 5.231857,5.231856 27.000007 0 0 3.8345004,4.7670752 L 3.0950664,4.0276421 a 6.2782271,6.2782286 80.999997 0 0 -1.761763,3.4571925 l 2.066121,0.32777 a 4.1854858,4.1854849 27.000007 0 0 0.40581,2.5538744 l -2.797751,1.424238 a 7.3245977,7.3246001 80.999997 0 0 3.201611,3.201611 l 0.474096,-0.932584 a 6.2782286,6.2782276 27.000007 0 0 3.831787,0.606765 l -0.743336,-4.6941347 0.581402,3.6600977 a 5.231856,5.2318574 80.999997 0 0 2.8796926,-1.46716 L 10.493303,11.425878 A 4.1854861,4.1854846 1.9165736 0 0 11.667812,9.1217337 L 14.76797,9.6114373 A 7.3246001,7.3245976 0.48547808 0 0 14.059752,5.1416695 L 14.992336,4.6656221 A 8.3709717,8.3709698 27.000007 0 0 11.334189,1.0074752 Z"
     id="path826-7"
     inkscape:connector-curvature="0" />
  <path
     style="fill:#00d5ff;fill-opacity:1;stroke:#000000;stroke-width:0.52375233;stroke-linecap:butt;stroke-linejoin:miter;stroke-miterlimit:4;stroke-dasharray:none;stroke-opacity:1;paint-order:normal"
     id="path826"
     d="m -2.5053108,5.5748531 a 5.2375226,5.2375236 0 0 1 2.61876159,1.902642 L -4.1237941,10.556034 Z"
     sodipodi:type="arc"
     sodipodi:start="5.0265482"
     sodipodi:end="5.6548668"
     sodipodi:ry="5.2375236"
     sodipodi:rx="5.2375226"
     sodipodi:cy="10.556034"
     sodipodi:cx="-4.1237941"
     transform="rotate(-62.999993)" />
  <path
     style="fill:#0029ff;fill-opacity:1;stroke:#000000;stroke-width:0.52375233;stroke-linecap:butt;stroke-linejoin:miter;stroke-miterlimit:4;stroke-dasharray:none;stroke-opacity:1;paint-order:normal"
     id="path826-4"
     sodipodi:type="arc"
     sodipodi:cx="-4.1237941"
     sodipodi:cy="10.556034"
     sodipodi:rx="4.1900182"
     sodipodi:ry="4.1900191"
     sodipodi:start="3.7699112"
     sodipodi:end="4.3982297"
     d="m -7.51359,8.0932026 a 4.1900182,4.1900191 0 0 1 2.095009,-1.5221135 l 1.2947869,3.9849449 z"
     transform="rotate(-62.999993)" />
  <path
     style="fill:#7dff7a;fill-opacity:1;stroke:#000000;stroke-width:0.52375233;stroke-linecap:butt;stroke-linejoin:miter;stroke-miterlimit:4;stroke-dasharray:none;stroke-opacity:1;paint-order:normal"
     id="path826-4-2"
     d="m -9.2084881,14.250281 a 6.2850275,6.2850285 0 0 1 -1.2003339,-3.694247 l 6.2850279,0 z"
     sodipodi:type="arc"
     sodipodi:start="2.5132741"
     sodipodi:end="3.1415927"
     sodipodi:ry="6.2850285"
     sodipodi:rx="6.2850275"
     sodipodi:cy="10.556034"
     sodipodi:cx="-4.1237941"
     transform="rotate(-62.999993)" />
  <path
     style="fill:#ff4700;fill-opacity:1;stroke:#000000;stroke-width:0.52375233;stroke-linecap:butt;stroke-linejoin:miter;stroke-miterlimit:4;stroke-dasharray:none;stroke-opacity:1;paint-order:normal"
     id="path826-4-2-0-8"
     sodipodi:type="arc"
     sodipodi:cx="-4.1237941"
     sodipodi:cy="10.556034"
     sodipodi:rx="8.3800364"
     sodipodi:ry="8.3800383"
     sodipodi:start="0"
     sodipodi:end="0.62831853"
     d="M 4.2562423,10.556034 A 8.3800364,8.3800383 0 0 1 2.6557977,15.481697 L -4.1237941,10.556034 Z"
     transform="rotate(-62.999993)" />
  <path
     style="fill:#0029ff;fill-opacity:1;stroke:#000000;stroke-width:0.52375233;stroke-linecap:butt;stroke-linejoin:miter;stroke-miterlimit:4;stroke-dasharray:none;stroke-opacity:1;paint-order:normal"
     id="path826-4-2-0-8-6"
     sodipodi:type="arc"
     sodipodi:cx="4.1237941"
     sodipodi:cy="10.556035"
     sodipodi:rx="4.1900182"
     sodipodi:ry="4.1900191"
     sodipodi:start="1.2566371"
     sodipodi:end="1.8849556"
     d="m 5.4185807,14.54098 a 4.1900182,4.1900191 0 0 1 -2.5895735,0 l 1.2947869,-3.984945 z"
     transform="matrix(-0.45399062,0.89100646,0.89100659,0.45399038,0,0)" />
  <path
     style="fill:#7dff7a;fill-opacity:1;stroke:#000000;stroke-width:0.52375233;stroke-linecap:butt;stroke-linejoin:miter;stroke-miterlimit:4;stroke-dasharray:none;stroke-opacity:1;paint-order:normal"
     id="path826-1"
     d="M -7.5987213,0.13869058 A 6.285027,6.2850285 0 0 1 -4.4562074,2.421861 l -5.0846938,3.6942469 z"
     sodipodi:type="arc"
     sodipodi:start="5.0265482"
     sodipodi:end="5.6548668"
     sodipodi:ry="6.2850285"
     sodipodi:rx="6.285027"
     sodipodi:cy="6.1161079"
     sodipodi:cx="-9.5409012"
     transform="rotate(-99.000003)" />
  <path
     style="fill:#ffe600;fill-opacity:1;stroke:#000000;stroke-width:0.52375233;stroke-linecap:butt;stroke-linejoin:miter;stroke-miterlimit:4;stroke-dasharray:none;stroke-opacity:1;paint-order:normal"
     id="path826-4-7"
     sodipodi:type="arc"
     sodipodi:cx="-9.5409012"
     sodipodi:cy="6.1161079"
     sodipodi:rx="7.332531"
     sodipodi:ry="7.3325334"
     sodipodi:start="3.7699112"
     sodipodi:end="4.3982297"
     d="m -15.473043,1.8061529 a 7.332531,7.3325334 0 0 1 3.666265,-2.66369856 l 2.2658768,6.97365356 z"
     transform="rotate(-99.000003)" />
  <path
     style="fill:#00d5ff;fill-opacity:1;stroke:#000000;stroke-width:0.52375233;stroke-linecap:butt;stroke-linejoin:miter;stroke-miterlimit:4;stroke-dasharray:none;stroke-opacity:1;paint-order:normal"
     id="path826-4-2-90"
     d="m -13.777776,9.1949173 a 5.2375226,5.237524 0 0 1 -1.000278,-3.0785397 l 5.2375228,2e-7 z"
     sodipodi:type="arc"
     sodipodi:start="2.5132741"
     sodipodi:end="3.1415927"
     sodipodi:ry="5.237524"
     sodipodi:rx="5.2375226"
     sodipodi:cy="6.1163778"
     sodipodi:cx="-9.5405312"
     transform="rotate(-99.000003)" />
  <path
     style="fill:#7dff7a;fill-opacity:1;stroke:#000000;stroke-width:0.52375233;stroke-linecap:butt;stroke-linejoin:miter;stroke-miterlimit:4;stroke-dasharray:none;stroke-opacity:1;paint-order:normal"
     id="path826-4-2-0-8-2"
     sodipodi:type="arc"
     sodipodi:cx="-9.5405312"
     sodipodi:cy="6.1163778"
     sodipodi:rx="6.285027"
     sodipodi:ry="6.2850285"
     sodipodi:start="0"
     sodipodi:end="0.62831853"
     d="M -3.2555041,6.1163778 A 6.285027,6.2850285 0 0 1 -4.4558375,9.8106249 L -9.5405312,6.1163778 Z"
     transform="rotate(-99.000003)" />
  <path
     style="fill:#ffe600;fill-opacity:1;stroke:#000000;stroke-width:0.52375233;stroke-linecap:butt;stroke-linejoin:miter;stroke-miterlimit:4;stroke-dasharray:none;stroke-opacity:1;paint-order:normal"
     id="path826-4-2-0-8-6-6"
     sodipodi:type="arc"
     sodipodi:cx="9.540904"
     sodipodi:cy="6.1161079"
     sodipodi:rx="7.332531"
     sodipodi:ry="7.3325334"
     sodipodi:start="1.2566371"
     sodipodi:end="1.8849556"
     d="m 11.80678,13.089762 a 7.332531,7.3325334 0 0 1 -4.5317527,0 L 9.540904,6.1161079 Z"
     transform="matrix(0.15643453,0.98768833,0.98768835,-0.15643442,0,0)" />
  <circle
     style="fill:#f0eff1;fill-opacity:1;stroke:#000000;stroke-width:0.5;stroke-linecap:butt;stroke-linejoin:miter;stroke-miterlimit:4;stroke-dasharray:none;stroke-opacity:1;paint-order:markers fill stroke"
     id="path4529"
     cx="7.5"
     cy="8.5"
     r="1.5" />
</svg>
