<?xml version="1.0" encoding="UTF-8" standalone="no"?>
<svg
   xmlns:dc="http://purl.org/dc/elements/1.1/"
   xmlns:cc="http://creativecommons.org/ns#"
   xmlns:rdf="http://www.w3.org/1999/02/22-rdf-syntax-ns#"
   xmlns:svg="http://www.w3.org/2000/svg"
   xmlns="http://www.w3.org/2000/svg"
   xmlns:sodipodi="http://sodipodi.sourceforge.net/DTD/sodipodi-0.dtd"
   xmlns:inkscape="http://www.inkscape.org/namespaces/inkscape"
   viewBox="0 0 16 16"
   version="1.1"
   id="svg7"
   sodipodi:docname="StatusRequired_16x.svg"
   inkscape:version="0.92.4 (5da689c313, 2019-01-14)">
  <metadata
     id="metadata13">
    <rdf:RDF>
      <cc:Work
         rdf:about="">
        <dc:format>image/svg+xml</dc:format>
        <dc:type
           rdf:resource="http://purl.org/dc/dcmitype/StillImage" />
      </cc:Work>
    </rdf:RDF>
  </metadata>
  <defs
     id="defs11" />
  <sodipodi:namedview
     pagecolor="#ffffff"
     bordercolor="#666666"
     borderopacity="1"
     objecttolerance="10"
     gridtolerance="10"
     guidetolerance="10"
     inkscape:pageopacity="0"
     inkscape:pageshadow="2"
     inkscape:window-width="809"
     inkscape:window-height="480"
     id="namedview9"
     showgrid="false"
     inkscape:zoom="14.75"
     inkscape:cx="8"
     inkscape:cy="8"
     inkscape:window-x="0"
     inkscape:window-y="0"
     inkscape:window-maximized="0"
     inkscape:current-layer="svg7" />
  <style
     id="style2">.st0{fill:#f6f6f6}.st1{fill:#e51400}.st2{fill:#fff}</style>
  <path
     class="st1"
     d="M8.028 1a7 7 0 1 0 .001 14.001A7 7 0 0 0 8.028 1zm3.132 9.912L9.608 12 8.023 9.16 6.471 12l-1.573-1.088L6.96 8.416l-2.932-.5.641-1.797 2.715 1.132L7.047 4h1.964l-.337 3.251 2.714-1.132.641 1.797-2.909.5 2.04 2.496z"
     id="icon_x5F_bg" />
  <path
     class="st2"
     d="M9.119 8.416l2.041 2.496L9.608 12 8.023 9.16 6.471 12l-1.573-1.088L6.96 8.416l-2.932-.5.641-1.797 2.715 1.132L7.047 4h1.964l-.337 3.251 2.714-1.132.641 1.797-2.91.5z"
     id="icon_x5F_fg" />
</svg>
