<?xml version="1.0" encoding="UTF-8" standalone="no"?>
<svg
   xmlns:dc="http://purl.org/dc/elements/1.1/"
   xmlns:cc="http://creativecommons.org/ns#"
   xmlns:rdf="http://www.w3.org/1999/02/22-rdf-syntax-ns#"
   xmlns:svg="http://www.w3.org/2000/svg"
   xmlns="http://www.w3.org/2000/svg"
   xmlns:sodipodi="http://sodipodi.sourceforge.net/DTD/sodipodi-0.dtd"
   xmlns:inkscape="http://www.inkscape.org/namespaces/inkscape"
   viewBox="0 0 16 16"
   version="1.1"
   id="svg10"
   sodipodi:docname="StatusCriticalError_16x.svg"
   inkscape:version="0.92.4 (5da689c313, 2019-01-14)">
  <metadata
     id="metadata16">
    <rdf:RDF>
      <cc:Work
         rdf:about="">
        <dc:format>image/svg+xml</dc:format>
        <dc:type
           rdf:resource="http://purl.org/dc/dcmitype/StillImage" />
      </cc:Work>
    </rdf:RDF>
  </metadata>
  <defs
     id="defs14" />
  <sodipodi:namedview
     pagecolor="#ffffff"
     bordercolor="#666666"
     borderopacity="1"
     objecttolerance="10"
     gridtolerance="10"
     guidetolerance="10"
     inkscape:pageopacity="0"
     inkscape:pageshadow="2"
     inkscape:window-width="809"
     inkscape:window-height="480"
     id="namedview12"
     showgrid="false"
     inkscape:zoom="14.75"
     inkscape:cx="8"
     inkscape:cy="8"
     inkscape:window-x="0"
     inkscape:window-y="0"
     inkscape:window-maximized="0"
     inkscape:current-layer="svg10" />
  <style
     id="style2">.icon-canvas-transparent{opacity:0;fill:#f6f6f6}.icon-vs-out{fill:#f6f6f6}.icon-vs-red{fill:#e51400}.icon-white{fill:#fff}</style>
  <path
     class="icon-canvas-transparent"
     d="M16 16H0V0h16v16z"
     id="canvas" />
  <path
     class="icon-vs-red"
     d="M8 1a7 7 0 1 0 .001 14.001A7 7 0 0 0 8 1zm4.414 10L11 12.414l-3-3-3 3L3.586 11l3-3-3-3L5 3.586l3 3 3-3L12.414 5l-3 3 3 3z"
     id="iconBg" />
  <g
     id="iconFg">
    <path
       class="icon-white"
       d="M9.414 8l3 3L11 12.414l-3-3-3 3L3.586 11l3-3-3-3L5 3.586l3 3 3-3L12.414 5l-3 3z"
       id="path7" />
  </g>
</svg>
